<svg width="80" height="80" viewBox="0 0 80 80" fill="none" xmlns="http://www.w3.org/2000/svg">
<circle cx="40" cy="40" r="38" fill="#FF7A04" opacity="0.1"/>
<path d="M40 20C28.95 20 20 28.95 20 40C20 51.05 28.95 60 40 60C51.05 60 60 51.05 60 40C60 28.95 51.05 20 40 20ZM40 55C32.27 55 26 48.73 26 41C26 33.27 32.27 27 40 27C47.73 27 54 33.27 54 41C54 48.73 47.73 55 40 55Z" fill="#FF7A04"/>
<circle cx="30" cy="35" r="4" fill="#FF7A04"/>
<circle cx="40" cy="35" r="4" fill="#FF7A04"/>
<circle cx="50" cy="35" r="4" fill="#FF7A04"/>
<path d="M30 45C30 47.76 32.24 50 35 50H45C47.76 50 50 47.76 50 45" stroke="#FF7A04" stroke-width="2" stroke-linecap="round"/>
</svg>